<svg width="31" height="31" viewBox="0 0 31 31" fill="none" xmlns="http://www.w3.org/2000/svg">
<mask id="path-1-inside-1_78_2" fill="white">
<path d="M31 15.5C31 11.914 29.7566 8.43893 27.4817 5.6669C25.2067 2.89488 22.041 0.997424 18.5239 0.297828C15.0068 -0.401767 11.3559 0.139788 8.19335 1.83022C5.03078 3.52065 2.55217 6.25537 1.17987 9.56841C-0.192438 12.8814 -0.373538 16.5678 0.667424 19.9994C1.70839 23.431 3.907 26.3955 6.88866 28.3878C9.87032 30.3801 13.4505 31.2769 17.0193 30.9254C20.588 30.5739 23.9245 28.9958 26.4602 26.4602L23.1943 23.1943C21.4142 24.9744 19.0719 26.0823 16.5666 26.329C14.0612 26.5758 11.5478 25.9462 9.45461 24.5476C7.36141 23.1489 5.81793 21.0678 5.08714 18.6587C4.35636 16.2496 4.4835 13.6617 5.44689 11.3359C6.41029 9.01003 8.15033 7.09018 10.3705 5.90346C12.5908 4.71673 15.1538 4.33654 17.6229 4.82768C20.092 5.31881 22.3144 6.65088 23.9114 8.59691C25.5085 10.5429 26.3814 12.9825 26.3814 15.5H31Z"/>
</mask>
<path d="M31 15.5C31 11.914 29.7566 8.43893 27.4817 5.6669C25.2067 2.89488 22.041 0.997424 18.5239 0.297828C15.0068 -0.401767 11.3559 0.139788 8.19335 1.83022C5.03078 3.52065 2.55217 6.25537 1.17987 9.56841C-0.192438 12.8814 -0.373538 16.5678 0.667424 19.9994C1.70839 23.431 3.907 26.3955 6.88866 28.3878C9.87032 30.3801 13.4505 31.2769 17.0193 30.9254C20.588 30.5739 23.9245 28.9958 26.4602 26.4602L23.1943 23.1943C21.4142 24.9744 19.0719 26.0823 16.5666 26.329C14.0612 26.5758 11.5478 25.9462 9.45461 24.5476C7.36141 23.1489 5.81793 21.0678 5.08714 18.6587C4.35636 16.2496 4.4835 13.6617 5.44689 11.3359C6.41029 9.01003 8.15033 7.09018 10.3705 5.90346C12.5908 4.71673 15.1538 4.33654 17.6229 4.82768C20.092 5.31881 22.3144 6.65088 23.9114 8.59691C25.5085 10.5429 26.3814 12.9825 26.3814 15.5H31Z" stroke="black" stroke-width="10" mask="url(#path-1-inside-1_78_2)"/>
</svg>
