<svg width="20" height="20" viewBox="0 0 20 20" fill="none" xmlns="http://www.w3.org/2000/svg">
<path d="M8 19L8 18H8V19ZM7 19L7 20H7V19ZM1 13L2 13L1 13ZM1 7L2.62334e-07 7L1 7ZM7 1L7 0L7 1ZM8 1L8 2L8 1ZM1.06156 5.21783L0.0738698 5.06139L0.0738695 5.06139L1.06156 5.21783ZM5.21783 1.06156L5.37426 2.04925L5.21783 1.06156ZM5.21783 18.9384L5.06139 19.9261L5.06139 19.9261L5.21783 18.9384ZM1.06156 14.7822L0.0738692 14.9386L0.0738694 14.9386L1.06156 14.7822ZM11.6006 18.7999C12.0422 18.4682 12.1313 17.8414 11.7996 17.3998C11.4679 16.9582 10.841 16.8691 10.3994 17.2008L11.6006 18.7999ZM10.3994 2.7992C10.841 3.13089 11.4679 3.0418 11.7996 2.60021C12.1313 2.15862 12.0422 1.53176 11.6006 1.20007L10.3994 2.7992ZM5 9C4.44772 9 4 9.44771 4 10C4 10.5523 4.44772 11 5 11L5 9ZM18 10L18 11H18V10ZM15.6213 5.21642C15.1885 4.87329 14.5596 4.94595 14.2164 5.37871C13.8733 5.81146 13.9459 6.44045 14.3787 6.78358L15.6213 5.21642ZM16.763 7.39785L17.3843 6.61427L17.3843 6.61427L16.763 7.39785ZM16.763 12.6022L17.3843 13.3857L17.3843 13.3857L16.763 12.6022ZM14.3787 13.2164C13.9459 13.5596 13.8733 14.1885 14.2164 14.6213C14.5596 15.0541 15.1885 15.1267 15.6213 14.7836L14.3787 13.2164ZM18.9801 9.74933L19.9677 9.59199L19.9677 9.59199L18.9801 9.74933ZM18.9801 10.2507L19.9677 10.408L19.9677 10.408L18.9801 10.2507ZM19 10L20 10L19 10ZM8 18H7V20H8V18ZM2 13L2 7L2.62334e-07 7L0 13L2 13ZM7 2L8 2L8 4.37772e-08L7 0L7 2ZM2 7C2 6.03278 2.0031 5.6656 2.04925 5.37426L0.0738695 5.06139C-0.00310307 5.54738 3.01272e-07 6.10921 2.62334e-07 7L2 7ZM7 0C6.10921 -3.8872e-08 5.54738 -0.00310352 5.06139 0.0738699L5.37426 2.04925C5.6656 2.0031 6.03278 2 7 2L7 0ZM2.04925 5.37426C2.32033 3.66269 3.66269 2.32033 5.37426 2.04925L5.06139 0.0738699C2.49404 0.480499 0.480499 2.49404 0.0738698 5.06139L2.04925 5.37426ZM7 18C6.03278 18 5.6656 17.9969 5.37426 17.9508L5.06139 19.9261C5.54738 20.0031 6.10921 20 7 20L7 18ZM0 13C-3.88719e-08 13.8908 -0.00310348 14.4526 0.0738692 14.9386L2.04925 14.6257C2.0031 14.3344 2 13.9672 2 13L0 13ZM5.37426 17.9508C3.66269 17.6797 2.32033 16.3373 2.04925 14.6257L0.0738694 14.9386C0.480498 17.506 2.49404 19.5195 5.06139 19.9261L5.37426 17.9508ZM8 20C9.34958 20 10.5977 19.5532 11.6006 18.7999L10.3994 17.2008C9.73099 17.7029 8.90163 18 8 18L8 20ZM8 2C8.90163 2 9.73099 2.29712 10.3994 2.7992L11.6006 1.20007C10.5977 0.44677 9.34958 1.02769e-07 8 4.37772e-08L8 2ZM5 11L18 11L18 9L5 9L5 11ZM14.3787 6.78358L16.1417 8.18142L17.3843 6.61427L15.6213 5.21642L14.3787 6.78358ZM16.1417 11.8186L14.3787 13.2164L15.6213 14.7836L17.3843 13.3857L16.1417 11.8186ZM16.1417 8.18142C16.8638 8.75398 17.3372 9.13127 17.6524 9.44534C17.9632 9.75494 17.988 9.87832 17.9926 9.90668L19.9677 9.59199C19.8639 8.94099 19.4831 8.44601 19.0639 8.0284C18.6492 7.61524 18.0681 7.15647 17.3843 6.61427L16.1417 8.18142ZM17.3843 13.3857C18.0681 12.8435 18.6492 12.3848 19.0639 11.9716C19.4831 11.554 19.8639 11.059 19.9677 10.408L17.9926 10.0933C17.988 10.1217 17.9632 10.2451 17.6524 10.5547C17.3372 10.8687 16.8638 11.246 16.1417 11.8186L17.3843 13.3857ZM17.9926 9.90667C17.9976 9.93805 18 9.96917 18 10L20 10C20 9.86339 19.9892 9.72706 19.9677 9.59199L17.9926 9.90667ZM18 10C18 10.0308 17.9976 10.0619 17.9926 10.0933L19.9677 10.408C19.9892 10.2729 20 10.1366 20 10L18 10ZM18 11H19V9H18V11Z" fill="#0E0E0E"/>
</svg>
