<svg width="32" height="31" viewBox="0 0 32 31" fill="none" xmlns="http://www.w3.org/2000/svg">
<path d="M4.82062 28.4615L4.23283 29.2705L4.82062 28.4615ZM3.03847 26.6794L2.22946 27.2672L3.03847 26.6794ZM28.9615 26.6794L28.1525 26.0916L28.9615 26.6794ZM27.1794 28.4615L26.5916 27.6525L27.1794 28.4615ZM27.1794 2.53847L26.5916 3.34749L27.1794 2.53847ZM28.9615 4.32062L28.1525 4.9084L28.9615 4.32062ZM4.82062 2.53847L5.4084 3.34749L4.82062 2.53847ZM3.03847 4.32062L3.84749 4.9084L3.03847 4.32062ZM4.72777 28.119L3.72862 28.0779L3.72777 28.0984V28.119H4.72777ZM27.2625 27.9418L28.2619 27.9077L28.2613 27.8905L28.2602 27.8734L27.2625 27.9418ZM21.4444 10.6667C21.4444 13.6736 19.0069 16.1111 16 16.1111V18.1111C20.1115 18.1111 23.4444 14.7781 23.4444 10.6667H21.4444ZM16 16.1111C12.9931 16.1111 10.5556 13.6736 10.5556 10.6667H8.55556C8.55556 14.7781 11.8885 18.1111 16 18.1111V16.1111ZM10.5556 10.6667C10.5556 7.65978 12.9931 5.22222 16 5.22222V3.22222C11.8885 3.22222 8.55556 6.55521 8.55556 10.6667H10.5556ZM16 5.22222C19.0069 5.22222 21.4444 7.65978 21.4444 10.6667H23.4444C23.4444 6.55521 20.1115 3.22222 16 3.22222V5.22222ZM16 29C12.9571 29 10.7553 28.9986 9.04663 28.8135C7.35672 28.6304 6.26829 28.2773 5.4084 27.6525L4.23283 29.2705C5.49048 30.1843 6.97112 30.6003 8.83121 30.8019C10.6726 31.0014 13.0017 31 16 31V29ZM0.5 15.5C0.5 18.4983 0.498627 20.8274 0.698127 22.6688C0.899655 24.5289 1.31573 26.0095 2.22946 27.2672L3.84749 26.0916C3.22275 25.2317 2.86958 24.1433 2.68649 22.4534C2.50137 20.7447 2.5 18.5429 2.5 15.5H0.5ZM29.5 15.5C29.5 18.5429 29.4986 20.7447 29.3135 22.4534C29.1304 24.1433 28.7773 25.2317 28.1525 26.0916L29.7705 27.2672C30.6843 26.0095 31.1003 24.5289 31.3019 22.6688C31.5014 20.8274 31.5 18.4983 31.5 15.5H29.5ZM16 31C18.9983 31 21.3274 31.0014 23.1688 30.8019C25.0289 30.6003 26.5095 30.1843 27.7672 29.2705L26.5916 27.6525C25.7317 28.2773 24.6433 28.6304 22.9534 28.8135C21.2447 28.9986 19.0429 29 16 29V31ZM16 2C19.0429 2 21.2447 2.00137 22.9534 2.18649C24.6433 2.36958 25.7317 2.72275 26.5916 3.34749L27.7672 1.72946C26.5095 0.815726 25.0289 0.399655 23.1688 0.198127C21.3274 -0.00137258 18.9983 0 16 0V2ZM31.5 15.5C31.5 12.5017 31.5014 10.1726 31.3019 8.33121C31.1003 6.47112 30.6843 4.99048 29.7705 3.73283L28.1525 4.9084C28.7773 5.76829 29.1304 6.85672 29.3135 8.54663C29.4986 10.2553 29.5 12.4571 29.5 15.5H31.5ZM26.5916 3.34749C27.1906 3.78268 27.7173 4.30943 28.1525 4.9084L29.7705 3.73283C29.212 2.96406 28.5359 2.288 27.7672 1.72946L26.5916 3.34749ZM16 0C13.0017 0 10.6726 -0.00137258 8.83121 0.198127C6.97112 0.399655 5.49048 0.815725 4.23283 1.72946L5.4084 3.34749C6.26829 2.72275 7.35672 2.36958 9.04663 2.18649C10.7553 2.00137 12.9571 2 16 2V0ZM2.5 15.5C2.5 12.4571 2.50137 10.2553 2.68649 8.54663C2.86958 6.85672 3.22275 5.76829 3.84749 4.9084L2.22946 3.73283C1.31573 4.99048 0.899655 6.47112 0.698127 8.33121C0.498627 10.1726 0.5 12.5017 0.5 15.5H2.5ZM4.23283 1.72946C3.46406 2.288 2.788 2.96406 2.22946 3.73283L3.84749 4.9084C4.28268 4.30942 4.80942 3.78268 5.4084 3.34749L4.23283 1.72946ZM11.1667 22.9444H20.8333V20.9444H11.1667V22.9444ZM11.1667 20.9444C7.1594 20.9444 3.89206 24.1103 3.72862 28.0779L5.72692 28.1602C5.8464 25.2598 8.2364 22.9444 11.1667 22.9444V20.9444ZM5.4084 27.6525C5.38116 27.6327 5.35405 27.6127 5.32708 27.5925L4.12846 29.1936C4.16304 29.2195 4.19784 29.2451 4.23283 29.2705L5.4084 27.6525ZM5.32708 27.5925C4.76167 27.1692 4.26287 26.6633 3.84749 26.0916L2.22946 27.2672C2.76258 28.0009 3.40278 28.6503 4.12846 29.1936L5.32708 27.5925ZM3.72777 28.119V28.393H5.72777V28.119H3.72777ZM20.8333 22.9444C23.7128 22.9444 26.071 25.1805 26.2649 28.0102L28.2602 27.8734C27.9949 24.0019 24.7716 20.9444 20.8333 20.9444V22.9444ZM28.1525 26.0916C27.7383 26.6617 27.2412 27.1663 26.6778 27.5889L27.8778 29.1889C28.6009 28.6466 29.2389 27.9988 29.7705 27.2672L28.1525 26.0916ZM26.6778 27.5889C26.6492 27.6103 26.6205 27.6315 26.5916 27.6525L27.7672 29.2705C27.8043 29.2436 27.8411 29.2164 27.8778 29.1889L26.6778 27.5889ZM26.2631 27.9759L26.2784 28.423L28.2772 28.3548L28.2619 27.9077L26.2631 27.9759Z" fill="black"/>
</svg>
