<svg width="21" height="21" viewBox="0 0 21 21" fill="none" xmlns="http://www.w3.org/2000/svg">
<path d="M2.58818 6.11939L3.5564 6.3695L2.58818 6.11939ZM6.08799 2.82533L6.27635 3.80743L6.08799 2.82533ZM8.15264 11.5436L7.87051 10.5842L8.15264 11.5436ZM9.25938 12.6503L8.3 12.3682L9.25938 12.6503ZM14.6836 18.2148L14.9337 19.183L14.6836 18.2148ZM17.9777 14.715L18.9598 14.9033V14.9033L17.9777 14.715ZM19.7323 5.56593L18.7502 5.37758L19.7323 5.56593ZM15.237 1.07069L15.0487 0.0885863L15.237 1.07069ZM3.82843 15.5604C3.4379 15.9509 3.4379 16.5841 3.82843 16.9746C4.21895 17.3651 4.85212 17.3651 5.24264 16.9746L3.82843 15.5604ZM6.65685 15.5604C7.04738 15.1698 7.04738 14.5367 6.65685 14.1462C6.26633 13.7556 5.63316 13.7556 5.24264 14.1462L6.65685 15.5604ZM4.53553 19.0959C4.14501 19.4864 4.14501 20.1196 4.53553 20.5101C4.92606 20.9006 5.55922 20.9006 5.94975 20.5101L4.53553 19.0959ZM7.36396 19.0959C7.75449 18.7054 7.75449 18.0722 7.36396 17.6817C6.97344 17.2912 6.34027 17.2912 5.94975 17.6817L7.36396 19.0959ZM0.292893 14.8533C-0.097631 15.2438 -0.0976311 15.8769 0.292893 16.2675C0.683417 16.658 1.31658 16.658 1.70711 16.2675L0.292893 14.8533ZM3.12132 14.8533C3.51184 14.4627 3.51184 13.8296 3.12132 13.439C2.7308 13.0485 2.09763 13.0485 1.70711 13.439L3.12132 14.8533ZM18.7502 5.37758L16.9956 14.5266L18.9598 14.9033L20.7144 5.75428L18.7502 5.37758ZM6.27635 3.80743L15.4254 2.05279L15.0487 0.0885863L5.89964 1.84323L6.27635 3.80743ZM3.5564 6.3695C3.89394 5.06286 4.95712 4.06044 6.27635 3.80743L5.89964 1.84323C3.81515 2.243 2.14926 3.82031 1.61997 5.86927L3.5564 6.3695ZM7.87051 10.5842C5.30756 11.3379 2.88156 8.98187 3.5564 6.3695L1.61997 5.86927C0.563334 9.9596 4.35624 13.7024 8.43478 12.503L7.87051 10.5842ZM10.2188 12.9325C10.6411 11.4962 9.30673 10.1619 7.87051 10.5842L8.43478 12.503C8.42253 12.5066 8.39917 12.5085 8.37393 12.5016C8.35199 12.4955 8.33705 12.4853 8.32738 12.4756C8.31771 12.4659 8.30746 12.451 8.30142 12.429C8.29448 12.4038 8.2964 12.3804 8.3 12.3682L10.2188 12.9325ZM14.4335 17.2466C11.8211 17.9214 9.46505 15.4954 10.2188 12.9325L8.3 12.3682C7.10061 16.4467 10.8434 20.2397 14.9337 19.183L14.4335 17.2466ZM16.9956 14.5266C16.7426 15.8459 15.7401 16.9091 14.4335 17.2466L14.9337 19.183C16.9827 18.6537 18.56 16.9878 18.9598 14.9033L16.9956 14.5266ZM20.7144 5.75428C21.3588 2.39414 18.4088 -0.555834 15.0487 0.0885863L15.4254 2.05279C17.3972 1.67463 19.1284 3.40576 18.7502 5.37758L20.7144 5.75428ZM5.24264 16.9746L6.65685 15.5604L5.24264 14.1462L3.82843 15.5604L5.24264 16.9746ZM5.94975 20.5101L7.36396 19.0959L5.94975 17.6817L4.53553 19.0959L5.94975 20.5101ZM1.70711 16.2675L3.12132 14.8533L1.70711 13.439L0.292893 14.8533L1.70711 16.2675Z" fill="black"/>
</svg>
